<?xml version="1.0" encoding="utf-8"?>
<!-- Generator: Adobe Illustrator 23.0.1, SVG Export Plug-In . SVG Version: 6.00 Build 0)  -->
<svg version="1.1" xmlns="http://www.w3.org/2000/svg" xmlns:xlink="http://www.w3.org/1999/xlink" x="0px" y="0px"
	 viewBox="0 0 180 180" style="enable-background:new 0 0 180 180;" xml:space="preserve">
<style type="text/css">
	.st0{display:none;}
	.st1{display:inline;fill:#008D36;}
	.st2{display:inline;}
	.st3{fill:#008D36;}
	.st4{display:inline;fill:#02C9A3;}
	.st5{fill:none;stroke:#FFFFFF;stroke-width:8;stroke-linecap:round;stroke-linejoin:round;stroke-miterlimit:10;}
</style>
<g id="Search" class="st0">
	<path class="st1" d="M159.4,20.6c-27.5-27.5-72-27.5-99.5,0C35.4,45.1,32.7,83,51.8,110.5L3.7,158.6c-4.9,4.9-4.9,12.9,0,17.8
		c2.5,2.5,5.7,3.7,8.9,3.7c3.2,0,6.4-1.2,8.9-3.7l48.1-48.1c27.4,19.1,65.4,16.4,89.8-8.1C186.9,92.7,186.9,48.1,159.4,20.6z
		 M144.8,105.6c-19.4,19.4-50.9,19.4-70.4,0C55,86.1,55,54.6,74.4,35.2c19.4-19.4,50.9-19.4,70.4,0
		C164.2,54.6,164.2,86.1,144.8,105.6z"/>
</g>
<g id="Directory" class="st0">
	<g class="st2">
		<g>
			<circle class="st3" cx="13.8" cy="38.1" r="13.8"/>
			<path class="st3" d="M166.2,51.9c7.6,0,13.8-6.2,13.8-13.8s-6.2-13.8-13.8-13.8H55.4c-7.6,0-13.8,6.2-13.8,13.8
				s6.2,13.8,13.8,13.8H166.2z"/>
		</g>
		<g>
			<circle class="st3" cx="13.8" cy="90" r="13.8"/>
			<path class="st3" d="M166.2,103.8c7.6,0,13.8-6.2,13.8-13.8s-6.2-13.8-13.8-13.8H55.4c-7.6,0-13.8,6.2-13.8,13.8
				s6.2,13.8,13.8,13.8H166.2z"/>
		</g>
		<g>
			<circle class="st3" cx="13.8" cy="141.9" r="13.8"/>
			<path class="st3" d="M166.2,155.8c7.6,0,13.8-6.2,13.8-13.8s-6.2-13.8-13.8-13.8H55.4c-7.6,0-13.8,6.2-13.8,13.8
				s6.2,13.8,13.8,13.8H166.2z"/>
		</g>
	</g>
</g>
<g id="Favourite" class="st0">
	<path class="st1" d="M179.7,56.2C177.1,27.3,156.6,6.3,131,6.3c-17.1,0-32.7,9.2-41.5,23.9C80.8,15.3,65.8,6.3,49,6.3
		c-25.6,0-46.1,21-48.7,49.9c-0.2,1.3-1.1,8,1.5,19c3.7,15.8,12.4,30.2,24.9,41.6l62.7,56.9l63.8-56.9
		c12.6-11.4,21.2-25.8,24.9-41.6C180.8,64.2,179.9,57.5,179.7,56.2z"/>
</g>
<g id="Chat" class="st0">
	<path class="st1" d="M163.9,9.3H16.1C7.2,9.3,0,16.5,0,25.4v90.5c0,8.9,7.2,16.1,16.1,16.1H38l-10.1,38.8l43.3-38.8h92.7
		c8.9,0,16.1-7.2,16.1-16.1V25.4C180,16.5,172.8,9.3,163.9,9.3z M42.1,84.3c-7.6,0-13.7-6.1-13.7-13.7s6.1-13.7,13.7-13.7
		c7.6,0,13.7,6.1,13.7,13.7S49.7,84.3,42.1,84.3z M90,84.3c-7.6,0-13.7-6.1-13.7-13.7S82.4,56.9,90,56.9c7.6,0,13.7,6.1,13.7,13.7
		S97.6,84.3,90,84.3z M137.9,84.3c-7.6,0-13.7-6.1-13.7-13.7s6.1-13.7,13.7-13.7c7.6,0,13.7,6.1,13.7,13.7S145.5,84.3,137.9,84.3z"
		/>
</g>
<g id="Settings" class="st0">
	<g class="st2">
		<path class="st3" d="M155.3,69.8L150.7,59c0,0,10.6-23.9,9.6-24.8l-14-13.7c-1-0.9-24.8,9.9-24.8,9.9l-11-4.4
			c0,0-9.7-24.2-11.1-24.2H79.7c-1.4,0-10.4,24.2-10.4,24.2l-11,4.5c0,0-24.4-10.4-25.3-9.4l-14,13.7c-1,0.9,10.2,24.3,10.2,24.3
			l-4.5,10.8c0,0-24.7,9.5-24.7,10.8v19.4c0,1.4,24.8,10.2,24.8,10.2l4.5,10.8c0,0-10.6,23.8-9.6,24.8l14,13.7
			c1,0.9,24.8-10,24.8-10l11,4.5c0,0,9.7,24.2,11.1,24.2h19.8c1.4,0,10.4-24.2,10.4-24.2l11-4.5c0,0,24.3,10.4,25.3,9.4l14-13.7
			c1-1-10.2-24.3-10.2-24.3l4.5-10.8c0,0,24.7-9.5,24.7-10.8V79.9C180,78.6,155.3,69.8,155.3,69.8z M118.9,90
			c0,15.6-12.9,28.2-28.9,28.2c-15.9,0-28.9-12.7-28.9-28.2s13-28.2,28.9-28.2C105.9,61.8,118.9,74.4,118.9,90z"/>
	</g>
</g>
<g id="Arrow" class="st0">
	<rect class="st4" width="180" height="180"/>
	<g class="st2">
		<polyline class="st5" points="90,50 130,90 90,130 		"/>
		<line class="st5" x1="130" y1="90" x2="50" y2="90"/>
	</g>
</g>
<g id="Notification" class="st0">
	<g class="st2">
		<path class="st3" d="M133.9,104.6V75.9c0-11.8-4.6-22.8-12.9-31.1c-7.1-7-16.1-11.4-25.9-12.5V21.4H84.6v10.9
			c-21.7,2.7-38.5,21.4-38.5,44v28.3c0,10.1-3,19.9-8.6,28.3L27.4,148h47.7c2.2,6.1,8,10.5,14.9,10.5s12.7-4.4,14.9-10.5h47.7
			l-10.1-15.1C136.9,124.5,133.9,114.7,133.9,104.6z"/>
		<path class="st3" d="M165.1,54l-7.5,7.5c7.6,7.6,11.8,17.8,11.8,28.6c0,10.6-4,20.6-11.4,28.1l7.6,7.3
			c9.3-9.6,14.4-22.2,14.4-35.5C180,76.4,174.7,63.6,165.1,54z"/>
		<path class="st3" d="M142.8,103.5l7.5,7.4c5.5-5.6,8.5-13,8.5-20.9c0-8-3.1-15.5-8.8-21.1l-7.5,7.5c3.7,3.7,5.7,8.5,5.7,13.7
			C148.4,95.1,146.4,99.9,142.8,103.5z"/>
		<path class="st3" d="M22.4,61.4L14.9,54C5.3,63.6,0,76.4,0,90c0,13.3,5.1,25.9,14.4,35.5l7.6-7.3c-7.3-7.6-11.4-17.6-11.4-28.1
			C10.5,79.2,14.8,69,22.4,61.4z"/>
		<path class="st3" d="M29.6,110.9l7.5-7.4c-3.6-3.6-5.5-8.4-5.5-13.5c0-5.2,2-10,5.7-13.7l-7.5-7.5C24.2,74.5,21.1,82,21.1,90
			C21.1,97.9,24.1,105.3,29.6,110.9z"/>
	</g>
</g>
<g id="Star" class="st0">
	<polygon class="st1" points="90,4.4 117.8,60.8 180,69.8 135,113.7 145.6,175.6 90,146.4 34.4,175.6 45,113.7 0,69.8 62.2,60.8 	
		"/>
</g>
<g id="Account" class="st0">
	<g class="st2">
		<circle class="st3" cx="89" cy="45.7" r="45.7"/>
		<path class="st3" d="M155.8,180c5.8,0,10.5-4.7,10.5-10.5v-21.1c0-19.9-34.6-36.1-77.3-36.1s-77.3,16.2-77.3,36.1v21.1
			c0,5.8,4.7,10.5,10.5,10.5H155.8z"/>
	</g>
</g>
<g id="user">
	<g>
		<path d="M90,101.4c-54.1,0-83.9,25.6-83.9,72c0,3.7,2.8,6.6,6.6,6.6h154.6c3.7,0,6.6-2.8,6.6-6.6C173.9,127,144.1,101.4,90,101.4z
			"/>
		<path d="M90,91.8c24.1,0,43.6-21.2,43.6-47.3C133.6,19.1,114.7,0,90,0S46.4,19.1,46.4,44.5C46.4,70.5,65.9,91.8,90,91.8z"/>
	</g>
</g>
<g id="business" class="st0">
	<g class="st2">
		<path d="M97.7,12.7L15.3,0.2C11.5-0.4,7.6,0.6,4.7,3.1C1.7,5.6,0,9.3,0,13.1v159.4c0,4.1,3.4,7.5,7.5,7.5h24.4v-40.7
			c0-7.3,5.8-13.1,13.1-13.1h18.7c7.3,0,13.1,5.9,13.1,13.1V180h31.9V25.7C108.7,19.2,104.1,13.7,97.7,12.7z M41.2,109.3H30
			c-3.1,0-5.6-2.5-5.6-5.6c0-3.1,2.5-5.6,5.6-5.6h11.3c3.1,0,5.6,2.5,5.6,5.6C46.9,106.8,44.4,109.3,41.2,109.3z M41.2,86.8H30
			c-3.1,0-5.6-2.5-5.6-5.6c0-3.1,2.5-5.6,5.6-5.6h11.3c3.1,0,5.6,2.5,5.6,5.6C46.9,84.3,44.4,86.8,41.2,86.8z M41.2,64.3H30
			c-3.1,0-5.6-2.5-5.6-5.6c0-3.1,2.5-5.6,5.6-5.6h11.3c3.1,0,5.6,2.5,5.6,5.6C46.9,61.8,44.4,64.3,41.2,64.3z M41.2,41.8H30
			c-3.1,0-5.6-2.5-5.6-5.6c0-3.1,2.5-5.6,5.6-5.6h11.3c3.1,0,5.6,2.5,5.6,5.6C46.9,39.3,44.4,41.8,41.2,41.8z M78.8,109.3H67.5
			c-3.1,0-5.6-2.5-5.6-5.6c0-3.1,2.5-5.6,5.6-5.6h11.3c3.1,0,5.6,2.5,5.6,5.6C84.4,106.8,81.9,109.3,78.8,109.3z M78.8,86.8H67.5
			c-3.1,0-5.6-2.5-5.6-5.6c0-3.1,2.5-5.6,5.6-5.6h11.3c3.1,0,5.6,2.5,5.6,5.6C84.4,84.3,81.9,86.8,78.8,86.8z M78.8,64.3H67.5
			c-3.1,0-5.6-2.5-5.6-5.6c0-3.1,2.5-5.6,5.6-5.6h11.3c3.1,0,5.6,2.5,5.6,5.6C84.4,61.8,81.9,64.3,78.8,64.3z M78.8,41.8H67.5
			c-3.1,0-5.6-2.5-5.6-5.6c0-3.1,2.5-5.6,5.6-5.6h11.3c3.1,0,5.6,2.5,5.6,5.6C84.4,39.3,81.9,41.8,78.8,41.8z"/>
		<path d="M169.7,80l-53.4-11.2V180h50.6c7.2,0,13.1-5.9,13.1-13.1V92.8C180,86.6,175.8,81.3,169.7,80z M151.9,156.2h-11.3
			c-3.1,0-5.6-2.5-5.6-5.6c0-3.1,2.5-5.6,5.6-5.6h11.3c3.1,0,5.6,2.5,5.6,5.6C157.5,153.6,155,156.2,151.9,156.2z M151.9,133.7
			h-11.3c-3.1,0-5.6-2.5-5.6-5.6c0-3.1,2.5-5.6,5.6-5.6h11.3c3.1,0,5.6,2.5,5.6,5.6C157.5,131.1,155,133.7,151.9,133.7z
			 M151.9,111.2h-11.3c-3.1,0-5.6-2.5-5.6-5.6s2.5-5.6,5.6-5.6h11.3c3.1,0,5.6,2.5,5.6,5.6S155,111.2,151.9,111.2z"/>
	</g>
</g>
</svg>
